<mxfile host="app.diagrams.net" modified="2021-04-09T10:56:45.611Z" agent="5.0 (Macintosh; Intel Mac OS X 10_15_7) AppleWebKit/537.36 (KHTML, like Gecko) Chrome/89.0.4389.114 Safari/537.36" etag="DdssZ69O3eHekaK5bFVu" version="14.5.8" type="github">
  <diagram id="eLj3aVgySneOvlAXaPM4" name="Page-1">
    <mxGraphModel dx="1854" dy="1033" grid="1" gridSize="10" guides="1" tooltips="1" connect="1" arrows="1" fold="1" page="1" pageScale="1" pageWidth="850" pageHeight="1100" math="0" shadow="0">
      <root>
        <mxCell id="0" />
        <mxCell id="1" parent="0" />
        <mxCell id="HtDRZnCT5usAE7uKnQW1-2" value="Redis" style="ellipse;whiteSpace=wrap;html=1;" parent="1" vertex="1">
          <mxGeometry x="540" y="115" width="120" height="80" as="geometry" />
        </mxCell>
        <mxCell id="HtDRZnCT5usAE7uKnQW1-4" value="" style="rounded=1;whiteSpace=wrap;html=1;" parent="1" vertex="1">
          <mxGeometry x="740" y="70" width="230" height="480" as="geometry" />
        </mxCell>
        <mxCell id="HtDRZnCT5usAE7uKnQW1-5" value="&lt;font style=&quot;font-size: 18px&quot;&gt;API Server&lt;/font&gt;" style="text;html=1;strokeColor=none;fillColor=none;align=center;verticalAlign=middle;whiteSpace=wrap;rounded=0;" parent="1" vertex="1">
          <mxGeometry x="740" y="40" width="230" height="20" as="geometry" />
        </mxCell>
        <mxCell id="HtDRZnCT5usAE7uKnQW1-6" value="MariaDB" style="ellipse;whiteSpace=wrap;html=1;" parent="1" vertex="1">
          <mxGeometry x="1160" y="255" width="120" height="80" as="geometry" />
        </mxCell>
        <mxCell id="HtDRZnCT5usAE7uKnQW1-11" value="&lt;span style=&quot;font-size: 18px&quot;&gt;Cache&lt;/span&gt;" style="text;html=1;strokeColor=none;fillColor=none;align=center;verticalAlign=middle;whiteSpace=wrap;rounded=0;" parent="1" vertex="1">
          <mxGeometry x="510" y="85" width="180" height="20" as="geometry" />
        </mxCell>
        <mxCell id="HtDRZnCT5usAE7uKnQW1-12" value="크롤링 모듈" style="rounded=1;whiteSpace=wrap;html=1;" parent="1" vertex="1">
          <mxGeometry x="790" y="250" width="120" height="60" as="geometry" />
        </mxCell>
        <mxCell id="HtDRZnCT5usAE7uKnQW1-13" value="인증 모듈" style="rounded=1;whiteSpace=wrap;html=1;" parent="1" vertex="1">
          <mxGeometry x="790" y="110" width="120" height="60" as="geometry" />
        </mxCell>
        <mxCell id="HtDRZnCT5usAE7uKnQW1-14" value="메시징 모듈" style="rounded=1;whiteSpace=wrap;html=1;" parent="1" vertex="1">
          <mxGeometry x="810" y="410" width="120" height="60" as="geometry" />
        </mxCell>
        <mxCell id="HtDRZnCT5usAE7uKnQW1-15" value="&lt;font style=&quot;font-size: 14px&quot;&gt;CRUD가 모두 일어남&lt;br&gt;nosql을 크게 고려할 정도의 확장성은 아직 필요하지 않음&lt;br&gt;join이나 aggregation이 필요할 때가 있음&lt;br&gt;&lt;/font&gt;" style="text;html=1;strokeColor=none;fillColor=none;align=center;verticalAlign=middle;whiteSpace=wrap;rounded=0;" parent="1" vertex="1">
          <mxGeometry x="1275" y="230" width="270" height="110" as="geometry" />
        </mxCell>
        <mxCell id="HtDRZnCT5usAE7uKnQW1-16" value="메시징 모듈" style="rounded=1;whiteSpace=wrap;html=1;" parent="1" vertex="1">
          <mxGeometry x="790" y="400" width="120" height="60" as="geometry" />
        </mxCell>
        <mxCell id="HtDRZnCT5usAE7uKnQW1-17" value="&lt;font style=&quot;font-size: 14px&quot;&gt;여러 개를 두고 보내야 속도가 더 빠름&lt;br&gt;비동기는 속도 제한에 걸림&lt;br&gt;현재는 하루에 약 3000통&lt;br&gt;1차 목표: 하루 1만통&lt;br&gt;&lt;/font&gt;" style="text;html=1;strokeColor=none;fillColor=none;align=center;verticalAlign=middle;whiteSpace=wrap;rounded=0;" parent="1" vertex="1">
          <mxGeometry x="750" y="470" width="210" height="70" as="geometry" />
        </mxCell>
        <mxCell id="HtDRZnCT5usAE7uKnQW1-32" style="edgeStyle=orthogonalEdgeStyle;rounded=0;orthogonalLoop=1;jettySize=auto;html=1;" parent="1" source="HtDRZnCT5usAE7uKnQW1-19" target="HtDRZnCT5usAE7uKnQW1-30" edge="1">
          <mxGeometry relative="1" as="geometry" />
        </mxCell>
        <mxCell id="HtDRZnCT5usAE7uKnQW1-19" value="" style="rounded=1;whiteSpace=wrap;html=1;" parent="1" vertex="1">
          <mxGeometry x="100" y="70" width="230" height="480" as="geometry" />
        </mxCell>
        <mxCell id="HtDRZnCT5usAE7uKnQW1-21" value="&lt;span style=&quot;font-size: 18px&quot;&gt;Client App/Web&lt;/span&gt;" style="text;html=1;strokeColor=none;fillColor=none;align=center;verticalAlign=middle;whiteSpace=wrap;rounded=0;" parent="1" vertex="1">
          <mxGeometry x="100" y="40" width="230" height="20" as="geometry" />
        </mxCell>
        <mxCell id="HtDRZnCT5usAE7uKnQW1-22" value="관리자의 텔레그램 앱" style="rounded=1;whiteSpace=wrap;html=1;" parent="1" vertex="1">
          <mxGeometry x="150" y="290" width="120" height="60" as="geometry" />
        </mxCell>
        <mxCell id="HtDRZnCT5usAE7uKnQW1-24" value="일반 사용자들의 &lt;br&gt;텔레그램 앱" style="rounded=1;whiteSpace=wrap;html=1;" parent="1" vertex="1">
          <mxGeometry x="172.5" y="130" width="120" height="60" as="geometry" />
        </mxCell>
        <mxCell id="HtDRZnCT5usAE7uKnQW1-25" value="일반 사용자들의 &lt;br&gt;텔레그램 앱" style="rounded=1;whiteSpace=wrap;html=1;" parent="1" vertex="1">
          <mxGeometry x="157.5" y="120" width="120" height="60" as="geometry" />
        </mxCell>
        <mxCell id="HtDRZnCT5usAE7uKnQW1-26" value="일반 사용자들의 &lt;br&gt;텔레그램 앱" style="rounded=1;whiteSpace=wrap;html=1;" parent="1" vertex="1">
          <mxGeometry x="137.5" y="110" width="120" height="60" as="geometry" />
        </mxCell>
        <mxCell id="HtDRZnCT5usAE7uKnQW1-27" value="&lt;font style=&quot;font-size: 14px&quot;&gt;1차 목표 사용자: 100명&lt;br&gt;2차 목표 사용자: 500명&lt;br&gt;&lt;/font&gt;" style="text;html=1;strokeColor=none;fillColor=none;align=center;verticalAlign=middle;whiteSpace=wrap;rounded=0;" parent="1" vertex="1">
          <mxGeometry x="110" y="190" width="210" height="60" as="geometry" />
        </mxCell>
        <mxCell id="HtDRZnCT5usAE7uKnQW1-28" value="&lt;font style=&quot;font-size: 14px&quot;&gt;일반 사용자 기능 + 관리 기능 수행&lt;br&gt;사용자 메시지 업데이트 쿼리&lt;br&gt;&lt;br&gt;&lt;/font&gt;" style="text;html=1;strokeColor=none;fillColor=none;align=center;verticalAlign=middle;whiteSpace=wrap;rounded=0;" parent="1" vertex="1">
          <mxGeometry x="110" y="358" width="210" height="60" as="geometry" />
        </mxCell>
        <mxCell id="HtDRZnCT5usAE7uKnQW1-29" value="&lt;font style=&quot;font-size: 14px&quot;&gt;관심 검색어 등록 가능(없을 시 *)&lt;br&gt;&lt;br&gt;&lt;/font&gt;" style="text;html=1;strokeColor=none;fillColor=none;align=center;verticalAlign=middle;whiteSpace=wrap;rounded=0;" parent="1" vertex="1">
          <mxGeometry x="110" y="240" width="210" height="60" as="geometry" />
        </mxCell>
        <mxCell id="HtDRZnCT5usAE7uKnQW1-30" value="특정 주소 이외는 접속을 제한" style="rounded=1;whiteSpace=wrap;html=1;" parent="1" vertex="1">
          <mxGeometry x="440" y="280" width="165" height="60" as="geometry" />
        </mxCell>
        <mxCell id="HtDRZnCT5usAE7uKnQW1-31" value="&lt;span style=&quot;font-size: 18px&quot;&gt;텔레그램 api&lt;/span&gt;" style="text;html=1;strokeColor=none;fillColor=none;align=center;verticalAlign=middle;whiteSpace=wrap;rounded=0;" parent="1" vertex="1">
          <mxGeometry x="440" y="250" width="160" height="20" as="geometry" />
        </mxCell>
        <mxCell id="HtDRZnCT5usAE7uKnQW1-43" value="자동 매크로" style="rounded=1;whiteSpace=wrap;html=1;" parent="1" vertex="1">
          <mxGeometry x="150" y="420" width="120" height="60" as="geometry" />
        </mxCell>
        <mxCell id="HtDRZnCT5usAE7uKnQW1-44" value="&lt;font style=&quot;font-size: 14px&quot;&gt;DB 업데이트 / 자동 응답&lt;br&gt;&lt;/font&gt;" style="text;html=1;strokeColor=none;fillColor=none;align=center;verticalAlign=middle;whiteSpace=wrap;rounded=0;" parent="1" vertex="1">
          <mxGeometry x="110" y="470" width="210" height="60" as="geometry" />
        </mxCell>
        <mxCell id="vCd3wjRCf6RUoLRCjk4X-1" value="Python Server" style="ellipse;whiteSpace=wrap;html=1;" parent="1" vertex="1">
          <mxGeometry x="794" y="670" width="120" height="80" as="geometry" />
        </mxCell>
        <mxCell id="vCd3wjRCf6RUoLRCjk4X-3" value="&lt;font style=&quot;font-size: 14px&quot;&gt;기업 라벨링 &amp;amp; 평점 라벨링&lt;br&gt;필터링 단계 라벨링&lt;br&gt;&lt;/font&gt;" style="text;html=1;strokeColor=none;fillColor=none;align=center;verticalAlign=middle;whiteSpace=wrap;rounded=0;" parent="1" vertex="1">
          <mxGeometry x="920" y="672.5" width="180" height="75" as="geometry" />
        </mxCell>
        <mxCell id="YbltRk2Bnch6wnQ721Rb-1" value="" style="endArrow=classic;html=1;entryX=1;entryY=0.5;entryDx=0;entryDy=0;exitX=0;exitY=0.5;exitDx=0;exitDy=0;" edge="1" parent="1" source="HtDRZnCT5usAE7uKnQW1-4" target="HtDRZnCT5usAE7uKnQW1-30">
          <mxGeometry width="50" height="50" relative="1" as="geometry">
            <mxPoint x="650" y="400" as="sourcePoint" />
            <mxPoint x="700" y="350" as="targetPoint" />
          </mxGeometry>
        </mxCell>
        <mxCell id="YbltRk2Bnch6wnQ721Rb-2" value="" style="endArrow=classic;html=1;entryX=0;entryY=0.5;entryDx=0;entryDy=0;exitX=1.001;exitY=0.467;exitDx=0;exitDy=0;exitPerimeter=0;" edge="1" parent="1" source="HtDRZnCT5usAE7uKnQW1-4" target="HtDRZnCT5usAE7uKnQW1-6">
          <mxGeometry width="50" height="50" relative="1" as="geometry">
            <mxPoint x="980" y="295" as="sourcePoint" />
            <mxPoint x="700" y="350" as="targetPoint" />
          </mxGeometry>
        </mxCell>
        <mxCell id="YbltRk2Bnch6wnQ721Rb-3" value="" style="endArrow=classic;html=1;entryX=1;entryY=0.5;entryDx=0;entryDy=0;exitX=-0.011;exitY=0.178;exitDx=0;exitDy=0;exitPerimeter=0;" edge="1" parent="1" source="HtDRZnCT5usAE7uKnQW1-4" target="HtDRZnCT5usAE7uKnQW1-2">
          <mxGeometry width="50" height="50" relative="1" as="geometry">
            <mxPoint x="650" y="400" as="sourcePoint" />
            <mxPoint x="700" y="350" as="targetPoint" />
          </mxGeometry>
        </mxCell>
        <mxCell id="YbltRk2Bnch6wnQ721Rb-4" value="" style="endArrow=classic;html=1;entryX=0.5;entryY=0;entryDx=0;entryDy=0;exitX=0.5;exitY=1;exitDx=0;exitDy=0;" edge="1" parent="1" source="HtDRZnCT5usAE7uKnQW1-4" target="vCd3wjRCf6RUoLRCjk4X-1">
          <mxGeometry width="50" height="50" relative="1" as="geometry">
            <mxPoint x="850" y="560" as="sourcePoint" />
            <mxPoint x="700" y="350" as="targetPoint" />
          </mxGeometry>
        </mxCell>
        <mxCell id="YbltRk2Bnch6wnQ721Rb-5" value="&lt;span style=&quot;font-size: 18px&quot;&gt;DB&lt;/span&gt;" style="text;html=1;strokeColor=none;fillColor=none;align=center;verticalAlign=middle;whiteSpace=wrap;rounded=0;" vertex="1" parent="1">
          <mxGeometry x="1157" y="230" width="130" height="20" as="geometry" />
        </mxCell>
        <mxCell id="YbltRk2Bnch6wnQ721Rb-6" value="&lt;span style=&quot;font-size: 18px&quot;&gt;Microservice server&lt;/span&gt;" style="text;html=1;strokeColor=none;fillColor=none;align=center;verticalAlign=middle;whiteSpace=wrap;rounded=0;" vertex="1" parent="1">
          <mxGeometry x="763" y="760" width="180" height="20" as="geometry" />
        </mxCell>
      </root>
    </mxGraphModel>
  </diagram>
</mxfile>
